<?xml version="1.0" encoding="UTF-8" standalone="no"?>
<svg
   width="55.537998"
   height="31.552"
   viewBox="0 0 55.537999 31.552"
   version="1.1"
   id="svg67"
   sodipodi:docname="Group 839.svg"
   inkscape:version="1.2.1 (9c6d41e410, 2022-07-14)"
   xmlns:inkscape="http://www.inkscape.org/namespaces/inkscape"
   xmlns:sodipodi="http://sodipodi.sourceforge.net/DTD/sodipodi-0.dtd"
   xmlns="http://www.w3.org/2000/svg"
   xmlns:svg="http://www.w3.org/2000/svg">
  <sodipodi:namedview
     id="namedview69"
     pagecolor="#ffffff"
     bordercolor="#666666"
     borderopacity="1.0"
     inkscape:showpageshadow="2"
     inkscape:pageopacity="0.0"
     inkscape:pagecheckerboard="0"
     inkscape:deskcolor="#d1d1d1"
     showgrid="false"
     inkscape:zoom="22.405156"
     inkscape:cx="39.723"
     inkscape:cy="15.777618"
     inkscape:window-width="1920"
     inkscape:window-height="1001"
     inkscape:window-x="-9"
     inkscape:window-y="-9"
     inkscape:window-maximized="1"
     inkscape:current-layer="svg67" />
  <defs
     id="defs60">
    <clipPath
       id="clip-path">
      <rect
         id="Rectangle_474"
         data-name="Rectangle 474"
         width="79.445999"
         height="31.552"
         fill="none"
         x="0"
         y="0" />
    </clipPath>
  </defs>
  <g
     id="Group_839"
     data-name="Group 839"
     clip-path="url(#clip-path)">
    <path
       id="Path_13949"
       data-name="Path 13949"
       d="m 33.972,16.372 a 8.181,8.181 0 1 1 7.322,-4.512 8.128,8.128 0 0 1 -7.322,4.512 m 0,-14.109 A 5.927,5.927 0 1 0 39.9,8.182 5.926,5.926 0 0 0 33.973,2.263"
       transform="translate(-18.209)"
       fill="#41b6e6" />
    <path
       id="Path_13950"
       data-name="Path 13950"
       d="M 1.133,69.866 A 1.131,1.131 0 0 1 0.016,68.54 c 0.948,-5.44 3.371,-9.18 7.629,-11.772 5.474,-3.335 10.8,-3.336 16.283,0 A 1.131,1.131 0 1 1 22.752,58.7 c -4.756,-2.892 -9.183,-2.893 -13.93,0 -2.5,1.521 -5.5,4.057 -6.576,10.228 a 1.132,1.132 0 0 1 -1.113,0.937"
       transform="translate(0,-38.315)"
       fill="#41b6e6" />
    <path
       id="Path_13953"
       data-name="Path 13953"
       d="m 115.485,16.372 a 8.179,8.179 0 1 1 7.322,-4.512 8.128,8.128 0 0 1 -7.322,4.512 m 0,-14.109 a 5.928,5.928 0 1 0 5.927,5.919 5.926,5.926 0 0 0 -5.927,-5.919"
       transform="translate(-75.762)"
       fill="#41b6e6" />
    <path
       id="Path_13954"
       data-name="Path 13954"
       d="m 111.942,69.863 a 1.131,1.131 0 0 1 -1.113,-0.936 c -1.087,-6.182 -4.09,-8.714 -6.585,-10.229 C 99.5,55.8 95.072,55.8 90.324,58.7 c -2.5,1.516 -5.5,4.047 -6.586,10.23 a 1.132,1.132 0 0 1 -2.229,-0.392 c 0.958,-5.448 3.385,-9.189 7.639,-11.771 5.474,-3.336 10.8,-3.336 16.273,0 4.253,2.581 6.68,6.322 7.637,11.77 a 1.131,1.131 0 0 1 -0.918,1.31 1.1,1.1 0 0 1 -0.2,0.017"
       transform="translate(-57.537,-38.312)"
       fill="#41b6e6" />
  </g>
</svg>
